<?xml version="1.0" encoding="UTF-8"?>
<svg version="1.1" xmlns="http://www.w3.org/2000/svg" width="1280" height="1280">
<path d="M0 0 C0.82547333 -0.0066568 1.65094666 -0.0133136 2.50143433 -0.02017212 C4.23775008 -0.03025397 5.97410423 -0.03499053 7.71044922 -0.03466797 C10.36620283 -0.03906087 13.020319 -0.07547933 15.67578125 -0.11328125 C17.36718184 -0.11914645 19.05859029 -0.12311783 20.75 -0.125 C21.54173615 -0.13937103 22.33347229 -0.15374207 23.14920044 -0.16854858 C26.48510853 -0.14085172 28.72084322 -0.03625594 31.47631836 1.9309082 C33.72807464 4.99769254 35.90564329 8.09422906 37.98828125 11.27734375 C38.43593338 11.95301895 38.88358551 12.62869415 39.34480286 13.32484436 C40.29987068 14.76733849 41.25287445 16.21120099 42.20397949 17.65631104 C44.68033771 21.41878184 47.17132211 25.17155686 49.66015625 28.92578125 C50.39155319 30.03046753 50.39155319 30.03046753 51.13772583 31.1574707 C55.31427379 37.46071735 59.557873 43.71560214 63.85717773 49.93579102 C70.35805992 59.35679214 76.6421472 68.92609091 82.9744873 78.46072388 C85.20373458 81.81650687 87.43449311 85.17128374 89.66552734 88.52587891 C90.80436634 90.23920254 91.94238114 91.9530743 93.07958984 93.66748047 C100.41383271 104.80213682 100.41383271 104.80213682 108.140625 115.6640625 C115.44977375 125.54852471 121.96244006 136.0265822 128.68798828 146.31152344 C137.84978561 160.37156881 137.84978561 160.37156881 147.56298828 174.05078125 C150.49934418 178.04675263 153.20179705 182.19618806 155.9296875 186.3359375 C163.58038162 197.87499538 171.30951058 209.36013726 179.0546875 220.8359375 C179.67717377 221.75842285 180.29966003 222.6809082 180.94100952 223.63134766 C184.75791817 229.28764253 188.57578611 234.94328919 192.394104 240.59863281 C195.29563033 244.89625337 198.19662884 249.19423015 201.09765625 253.4921875 C202.20914469 255.13883629 203.32063556 256.78548343 204.43212891 258.43212891 C206.64146815 261.70522107 208.85077512 264.97833503 211.06005859 268.25146484 C211.61042786 269.06684723 212.16079712 269.88222961 212.72784424 270.72232056 C213.84532633 272.37789258 214.96279864 274.03347121 216.08026123 275.6890564 C219.02550805 280.0524774 221.97118234 284.4156091 224.91748047 288.77832031 C249.67859971 325.44406032 249.67859971 325.44406032 260.6796875 341.9609375 C261.07098846 342.54839752 261.46228943 343.13585754 261.865448 343.74111938 C266.07304601 350.05966049 270.27364 356.38283922 274.47145081 362.70788574 C276.42061644 365.64370677 278.37169702 368.57825253 280.32302856 371.51263428 C281.67872523 373.55292818 283.03169042 375.59501249 284.38452148 377.63720703 C288.81800775 384.31291563 293.33646549 390.91189446 297.98828125 397.4375 C305.20273544 407.57540249 311.99300596 417.98762873 318.8046875 428.3984375 C326.40755352 440.00697639 334.02369567 451.59512764 341.93457031 462.99682617 C345.44529505 468.05970004 348.84065672 473.19935262 352.2421875 478.3359375 C359.67869648 489.54530668 367.21569421 500.68690616 374.7421875 511.8359375 C388.97252456 532.91540542 388.97252456 532.91540542 395.07324219 542.08935547 C401.19168936 551.24774251 407.37378157 560.36372885 413.53710938 569.49194336 C422.69298571 583.05355803 431.79951867 596.64587141 440.85183716 610.27674866 C443.04874574 613.58398005 445.24712504 616.8902323 447.44580078 620.19628906 C448.55731084 621.86858728 449.66799233 623.54143652 450.77783203 625.21484375 C456.47369613 633.80147226 462.20472695 642.34833078 468.1875 650.73828125 C475.13603092 660.49292482 481.6814176 670.5057251 488.2421875 680.5234375 C490.80323535 684.42543379 493.36628443 688.32611317 495.9296875 692.2265625 C496.8721936 693.66140236 496.8721936 693.66140236 497.83374023 695.12522888 C502.85145833 702.75790144 507.92222558 710.35384092 513.0118103 717.93869019 C519.1106954 727.03339145 525.13442143 736.16855608 530.9296875 745.4609375 C531.46529297 746.31486084 532.00089844 747.16878418 532.55273438 748.04858398 C533.27106445 749.21562866 533.27106445 749.21562866 534.00390625 750.40625 C534.41600342 751.07414551 534.82810059 751.74204102 535.25268555 752.43017578 C536.2720158 754.39338623 536.74243585 756.19063409 537.2421875 758.3359375 C529.15774076 760.57920587 521.38147125 760.61165837 513.03733826 760.57644653 C511.4951443 760.5773196 509.95295064 760.57907245 508.41075855 760.58162487 C504.18966891 760.58608245 499.96868137 760.57811663 495.74760473 760.56806874 C491.18943823 760.55941359 486.63127726 760.56235586 482.07310486 760.56387329 C474.18130065 760.56492084 466.28952957 760.55865787 458.39773369 760.54739761 C446.98759436 760.5311279 435.57747101 760.5259331 424.16732133 760.52342163 C405.65410033 760.51904684 387.14089697 760.50574359 368.62768555 760.48681641 C350.64624113 760.46845202 332.66480151 760.45429825 314.68334961 760.44580078 C313.57455177 760.44527533 312.46575392 760.44474989 311.32335614 760.44420852 C305.76071738 760.4415984 300.19807858 760.43907099 294.63543975 760.43658471 C248.50434333 760.41585893 202.3732666 760.38049036 156.2421875 760.3359375 C156.2421875 755.0559375 156.2421875 749.7759375 156.2421875 744.3359375 C265.1421875 744.3359375 374.0421875 744.3359375 486.2421875 744.3359375 C469.92082445 719.76416641 469.92082445 719.76416641 453.18359375 695.52734375 C450.13032135 691.19755092 447.18475653 686.80289219 444.26293945 682.38378906 C438.47013703 673.63391874 432.53496885 664.97978997 426.62742615 656.3072052 C424.0239789 652.48506322 421.42335368 648.6610141 418.82421875 644.8359375 C411.96317253 634.73878116 405.09395944 624.64749863 398.19433594 614.57666016 C392.95417426 606.92407729 387.74276147 599.25201403 382.53027344 591.58056641 C378.36290662 585.44906414 374.18478895 579.3252048 369.9921875 573.2109375 C364.25198147 564.83665364 358.55832744 556.43109547 352.8671875 548.0234375 C344.93973331 536.31208239 336.99142206 524.61536484 329.01611328 512.93652344 C327.19152597 510.26166738 325.37071121 507.5842767 323.55078125 504.90625 C317.105905 495.42779801 310.61710819 485.98346131 304.0546875 476.5859375 C298.88199387 469.17774008 293.79997772 461.72116313 288.81958008 454.18261719 C284.72076114 448.00097263 280.4916905 441.91471991 276.2421875 435.8359375 C270.88735236 428.1752409 265.61876107 420.4684552 260.45776367 412.67602539 C256.93623234 407.36242986 253.35002976 402.09794481 249.72827148 396.85229492 C245.45453567 390.65774518 241.2214359 384.43592601 236.9921875 378.2109375 C231.58190106 370.24823441 226.16751646 362.28840005 220.7421875 354.3359375 C211.83897795 341.28364795 202.95817919 328.21613627 194.07617188 315.14941406 C186.02878994 303.31096647 177.97706154 291.47554497 169.91015625 279.65039062 C165.13868704 272.65458958 160.37701955 265.65216001 155.6171875 258.6484375 C150.62784525 251.30777672 145.63193418 243.97176918 140.6171875 236.6484375 C129.44628713 220.33381547 118.32325001 203.98734943 107.23962402 187.61334229 C101.50852753 179.14747219 95.76381864 170.69149362 89.98291016 162.25952148 C83.44110298 152.71545086 76.94378367 143.14109377 70.44042969 133.57080078 C66.83342219 128.26284328 63.22546738 122.95553011 59.6171875 117.6484375 C58.55153564 116.08089722 58.55153564 116.08089722 57.46435547 114.48168945 C53.60993648 108.81324419 49.75034102 103.14839076 45.88476562 97.48754883 C39.12823124 87.59071911 32.39439743 77.67852969 25.67340088 67.75753784 C24.6463433 66.24184544 23.61880602 64.72647796 22.59075928 63.2114563 C21.13720271 61.06901811 19.68556297 58.92529305 18.234375 56.78125 C17.80471436 56.1486879 17.37505371 55.51612579 16.93237305 54.86439514 C13.92828612 50.41987143 11.05898233 45.90128144 8.2421875 41.3359375 C4.5274019 45.66985403 1.74198793 50.36916941 -1.1328125 55.2734375 C-7.22710186 65.55091833 -13.61561225 75.62325271 -20.06152344 85.68261719 C-22.68484623 89.78599544 -25.28494188 93.90391424 -27.8828125 98.0234375 C-28.37225342 98.79929199 -28.86169434 99.57514648 -29.3659668 100.37451172 C-30.34513158 101.92670767 -31.32421742 103.47895341 -32.30322266 105.03125 C-33.74863039 107.32138914 -35.19621934 109.61013407 -36.64453125 111.8984375 C-42.1695204 120.63058836 -47.66364343 129.38120651 -53.1328125 138.1484375 C-59.17468235 147.83117857 -65.28101239 157.47107197 -71.41796875 167.09375 C-76.06632772 174.38355739 -80.67781572 181.69657721 -85.29003906 189.00927734 C-87.77764607 192.95253995 -90.26787664 196.89414518 -92.7578125 200.8359375 C-93.75782474 202.4192631 -94.75782475 204.00259643 -95.7578125 205.5859375 C-101.7578125 215.0859375 -101.7578125 215.0859375 -103.25708008 217.4597168 C-104.25959493 219.04707276 -105.26203604 220.63447529 -106.2644043 222.22192383 C-108.72533213 226.11909145 -111.18742962 230.01550851 -113.65234375 233.91015625 C-119.17434927 242.63863724 -124.66618876 251.38515289 -130.1328125 260.1484375 C-135.53620575 268.80914179 -140.99141039 277.43481456 -146.48339844 286.03955078 C-151.46792763 293.85855761 -156.38571114 301.71826886 -161.29296875 309.5859375 C-165.57053806 316.4424987 -169.87416241 323.28185351 -174.19750977 330.10961914 C-177.61136504 335.50648499 -180.99722495 340.92033044 -184.375 346.33984375 C-189.69981205 354.8830663 -195.05967895 363.39595962 -200.55712891 371.82910156 C-205.83879149 379.95622834 -210.93982256 388.19646384 -216.06640625 396.421875 C-219.27738183 401.57234937 -222.51089519 406.70806639 -225.7578125 411.8359375 C-230.28381952 418.98646121 -234.77674239 426.15717266 -239.2578125 433.3359375 C-244.21463491 441.27686713 -249.19286001 449.20350579 -254.19921875 457.11328125 C-258.89119591 464.53286114 -263.53905163 471.97979585 -268.18701172 479.42700195 C-272.06578978 485.63850992 -275.96408313 491.83707007 -279.8828125 498.0234375 C-284.04912521 504.60241387 -288.16668563 511.20995907 -292.2578125 517.8359375 C-296.82841717 525.23847691 -301.44219153 532.61151053 -306.09765625 539.9609375 C-310.17624258 546.40361303 -314.22058441 552.86727832 -318.2578125 559.3359375 C-323.21457744 567.27690281 -328.19286023 575.20350613 -333.19921875 583.11328125 C-337.89347753 590.53646913 -342.54384094 597.98687423 -347.19360352 605.43798828 C-351.00553441 611.54311371 -354.84005188 617.63310859 -358.6953125 623.7109375 C-363.44974888 631.21180579 -368.11228565 638.76721055 -372.7578125 646.3359375 C-378.87634192 656.30390632 -385.06496362 666.22274944 -391.33544922 676.09570312 C-402.99995219 694.46739541 -414.65712097 712.85350325 -425.94921875 731.45703125 C-428.46992322 735.46947012 -431.1293519 739.3932466 -433.7578125 743.3359375 C-225.3628125 743.8309375 -225.3628125 743.8309375 -12.7578125 744.3359375 C-12.7578125 664.1459375 -12.7578125 583.9559375 -12.7578125 501.3359375 C5.7221875 501.3359375 24.2021875 501.3359375 43.2421875 501.3359375 C43.2421875 724.7459375 43.2421875 948.1559375 43.2421875 1178.3359375 C42.2521875 1178.3359375 41.2621875 1178.3359375 40.2421875 1178.3359375 C40.2421875 1178.9959375 40.2421875 1179.6559375 40.2421875 1180.3359375 C34.86702817 1180.36061509 29.49190165 1180.37878678 24.11669922 1180.39086914 C22.28726629 1180.39590487 20.45783741 1180.40273377 18.62841797 1180.41137695 C16.00226852 1180.42347574 13.37617218 1180.42917333 10.75 1180.43359375 C9.92911896 1180.43875504 9.10823792 1180.44391632 8.26248169 1180.44923401 C2.46993091 1180.44980921 2.46993091 1180.44980921 0.2421875 1179.3359375 C-4.0478125 1179.0059375 -8.3378125 1178.6759375 -12.7578125 1178.3359375 C-12.7578125 1040.3959375 -12.7578125 902.4559375 -12.7578125 760.3359375 C-169.5078125 760.3359375 -326.2578125 760.3359375 -487.7578125 760.3359375 C-484.68653653 754.19338556 -481.93008201 748.7847053 -478.0703125 743.2734375 C-474.46001573 737.98987843 -471.08690889 732.62496128 -467.8828125 727.0859375 C-462.94809199 718.57218893 -457.70759499 710.27388532 -452.42773438 701.97119141 C-449.37104757 697.14752512 -446.34594786 692.30411966 -443.3203125 687.4609375 C-442.68738281 686.44805664 -442.05445313 685.43517578 -441.40234375 684.39160156 C-437.27429922 677.77955477 -433.16708442 671.15489394 -429.0703125 664.5234375 C-423.51834861 655.53839962 -417.89535057 646.60003483 -412.24169922 637.67871094 C-409.74297661 633.73370565 -407.25070109 629.78463092 -404.7578125 625.8359375 C-401.79486745 621.14332768 -398.83122443 616.45116941 -395.86328125 611.76171875 C-388.42625362 600.00673962 -381.04691613 588.21624529 -373.68115234 576.41650391 C-370.54192027 571.38847263 -367.39974099 566.36228409 -364.2578125 561.3359375 C-363.00779786 559.33594665 -361.75779788 557.33594664 -360.5078125 555.3359375 C-358.0078125 551.3359375 -355.5078125 547.3359375 -353.0078125 543.3359375 C-352.38898193 542.34577637 -351.77015137 541.35561523 -351.13256836 540.33544922 C-349.88349922 538.33700366 -348.63431316 536.33863116 -347.38500977 534.34033203 C-344.24480114 529.31714415 -341.10668332 524.2926723 -337.97265625 519.265625 C-331.96594141 509.63533208 -325.93391017 500.02378725 -319.8203125 490.4609375 C-314.71379275 482.47082965 -309.71263065 474.42092727 -304.7578125 466.3359375 C-299.24616156 457.34233974 -293.65594812 448.406138 -287.97436523 439.51904297 C-281.79421572 429.84675461 -275.7212836 420.1083575 -269.64892578 410.36816406 C-266.52237826 405.35503209 -263.38981089 400.34566507 -260.2578125 395.3359375 C-259.00778324 393.33595579 -257.75778324 391.33595578 -256.5078125 389.3359375 C-249.0078125 377.3359375 -241.5078125 365.3359375 -234.0078125 353.3359375 C-233.07932495 351.85033325 -233.07932495 351.85033325 -232.13208008 350.3347168 C-230.88458003 348.33874922 -229.63702162 346.34281811 -228.3894043 344.34692383 C-225.22567068 339.28552834 -222.06301689 334.22346356 -218.90234375 329.16015625 C-212.72923503 319.27314472 -206.54155494 309.39608859 -200.30908203 299.54638672 C-194.3953971 290.19337024 -188.54077226 280.8034462 -182.68115234 271.41650391 C-179.54192027 266.38847263 -176.39974099 261.36228409 -173.2578125 256.3359375 C-172.00779786 254.33594665 -170.75779788 252.33594664 -169.5078125 250.3359375 C-162.0078125 238.3359375 -154.5078125 226.3359375 -147.0078125 214.3359375 C-146.3888208 213.34553467 -145.7698291 212.35513184 -145.13208008 211.3347168 C-143.88458003 209.33874922 -142.63702162 207.34281811 -141.3894043 205.34692383 C-138.22567068 200.28552834 -135.06301689 195.22346356 -131.90234375 190.16015625 C-126.16772529 180.97559015 -120.42586967 171.79628001 -114.6328125 162.6484375 C-109.98202175 155.30239023 -105.39221039 147.92017595 -100.82373047 140.52270508 C-96.65754058 133.77964959 -92.46303391 127.05471119 -88.2578125 120.3359375 C-83.57170085 112.84784561 -78.90147205 105.35043091 -74.2578125 97.8359375 C-68.98189313 89.29830443 -63.66783206 80.78500958 -58.34375 72.27734375 C-54.29719619 65.8078534 -50.26924592 59.32725598 -46.2578125 52.8359375 C-40.91866462 44.19706582 -35.55918288 35.5709857 -30.15258789 26.97412109 C-27.31373164 22.45639526 -24.50014646 17.93241668 -21.796875 13.33203125 C-21.35174561 12.58542236 -20.90661621 11.83881348 -20.44799805 11.06958008 C-19.64312758 9.71474355 -18.85167895 8.3517928 -18.07739258 6.97924805 C-16.39190618 4.16601523 -15.19335585 2.53031425 -12.16479492 1.17871094 C-8.03590698 0.15736223 -4.23645997 0.01197031 0 0 Z " fill="#000000" transform="translate(624.7578125,60.6640625)"/>
<path d="M0 0 C4.0066124 3.6008419 6.72730247 7.85356325 9.65625 12.32421875 C10.19922729 13.14388626 10.74220459 13.96355377 11.30163574 14.80805969 C13.03885285 17.43164344 14.76987885 20.05923249 16.5 22.6875 C18.75709109 26.11028109 21.01730608 29.53096635 23.28125 32.94921875 C23.84260147 33.79681259 24.40395294 34.64440643 24.98231506 35.51768494 C29.11753542 41.73506338 33.38245698 47.84910975 37.71238708 53.93191528 C42.19146143 60.2349222 46.49591391 66.64411949 50.76028442 73.09368896 C53.11509575 76.65391248 55.47963727 80.20766759 57.84375 83.76171875 C58.34197769 84.5109259 58.84020538 85.26013306 59.35353088 86.03204346 C65.21632431 94.84012675 71.13799507 103.60835783 77.0625 112.375 C77.90522964 113.62222839 77.90522964 113.62222839 78.76498413 114.89465332 C81.0761696 118.31509438 83.38752694 121.73541913 85.69926453 125.15548706 C91.6591444 133.97323305 97.61024922 142.79688841 103.56033325 151.62124634 C105.3792308 154.31877451 107.19826201 157.01621249 109.01733398 159.71362305 C113.28943475 166.04853829 117.56134253 172.38358366 121.83325195 178.71862793 C126.09706892 185.04165209 130.36096957 191.3646198 134.625 197.6875 C135.22616638 198.57893707 135.82733276 199.47037415 136.44671631 200.38882446 C145.12789796 213.26140871 153.8126486 226.13157887 162.5 239 C171.79503068 252.76856577 181.08670455 266.53938967 190.375 280.3125 C190.97600525 281.20369537 191.5770105 282.09489075 192.19622803 283.01309204 C197.07538039 290.24817331 201.95432034 297.4833978 206.83325195 304.71862793 C211.09706892 311.04165209 215.36096957 317.3646198 219.625 323.6875 C220.52674957 325.02465561 220.52674957 325.02465561 221.44671631 326.38882446 C230.12789796 339.26140871 238.8126486 352.13157887 247.5 365 C256.79503068 378.76856577 266.08670455 392.53938967 275.375 406.3125 C275.97600525 407.20369537 276.5770105 408.09489075 277.19622803 409.01309204 C282.07538039 416.24817331 286.95432034 423.4833978 291.83325195 430.71862793 C317.53188635 468.82839847 343.23561164 506.93463934 369 545 C368.67 545.66 368.34 546.32 368 547 C362.50958744 539.57436011 357.27270264 532.02024026 352.1875 524.3125 C346.80095202 516.19070735 341.36524778 508.11066698 335.82421875 500.09375 C332.44395543 495.20263904 329.09760143 490.28849787 325.75 485.375 C325.11497559 484.44341064 324.47995117 483.51182129 323.82568359 482.55200195 C320.63736336 477.87389874 317.45168499 473.1940187 314.26953125 468.51171875 C307.83705273 459.05323827 301.36147514 449.6282695 294.8125 440.25 C289.63980637 432.84180258 284.55779022 425.38522563 279.57739258 417.84667969 C275.47857364 411.66503513 271.249503 405.57878241 267 399.5 C261.64516486 391.8393034 256.37657357 384.1325177 251.21557617 376.34008789 C247.69404484 371.02649236 244.10784226 365.76200731 240.48608398 360.51635742 C236.21234817 354.32180768 231.9792484 348.09998851 227.75 341.875 C222.33971356 333.91229691 216.92532896 325.95246255 211.5 318 C202.59679045 304.94771045 193.71599169 291.88019877 184.83398438 278.81347656 C176.78660244 266.97502897 168.73487404 255.13960747 160.66796875 243.31445312 C155.89649954 236.31865208 151.13483205 229.31622251 146.375 222.3125 C141.38565775 214.97183922 136.38974668 207.63583168 131.375 200.3125 C120.20409963 183.99787797 109.08106251 167.65141193 97.99743652 151.27740479 C92.26634003 142.81153469 86.52163114 134.35555612 80.74072266 125.92358398 C74.19891548 116.37951336 67.70159617 106.80515627 61.19824219 97.23486328 C57.59123469 91.92690578 53.98327988 86.61959261 50.375 81.3125 C49.66456543 80.26747314 48.95413086 79.22244629 48.22216797 78.14575195 C44.36764761 72.47715761 40.50787754 66.81220489 36.64233398 61.15112305 C29.33816945 50.45267623 22.07064196 39.72970437 14.8125 29 C14.050513 27.87369675 14.050513 27.87369675 13.27313232 26.72463989 C11.81331203 24.56662024 10.35383985 22.40836569 8.89453125 20.25 C8.45970932 19.60711533 8.02488739 18.96423065 7.57688904 18.30186462 C6.76439105 17.09970258 5.95340885 15.8965142 5.14419556 14.69213867 C4.02481372 13.03669675 2.88504324 11.39509959 1.74487305 9.75390625 C-0.16328388 6.74229156 -0.75321348 4.5372734 -1 1 C-0.67 0.67 -0.34 0.34 0 0 Z " fill="#464040" transform="translate(634,97)"/>
<path d="M0 0 C4.71645728 4.28040849 7.96520322 9.18540528 11.41015625 14.515625 C12.01830673 15.44485779 12.62645721 16.37409058 13.2530365 17.33148193 C15.19523384 20.30063942 17.12941267 23.27490494 19.0625 26.25 C21.59104558 30.13283601 24.12345828 34.01311006 26.66015625 37.890625 C27.59094749 39.31361404 27.59094749 39.31361404 28.5405426 40.76535034 C33.34894384 48.08328097 38.34263721 55.25178179 43.42797852 62.37890625 C46.70503947 66.97405694 49.833756 71.66155449 52.9375 76.375 C60.50436119 87.78936946 68.15151594 99.14864327 75.8125 110.5 C76.43534882 111.42302917 77.05819763 112.34605835 77.69992065 113.29705811 C81.51646207 118.95280434 85.33396803 124.60789885 89.1519165 130.26269531 C92.05344283 134.56031587 94.95444134 138.85829265 97.85546875 143.15625 C98.96695719 144.80289879 100.07844806 146.44954593 101.18994141 148.09619141 C103.39928065 151.36928357 105.60858762 154.64239753 107.81787109 157.91552734 C108.64342499 159.13860092 108.64342499 159.13860092 109.48565674 160.38638306 C110.60313883 162.04195508 111.72061114 163.69753371 112.83807373 165.3531189 C115.78332055 169.7165399 118.72899484 174.0796716 121.67529297 178.44238281 C146.43641221 215.10812282 146.43641221 215.10812282 157.4375 231.625 C157.82880096 232.21246002 158.22010193 232.79992004 158.6232605 233.40518188 C162.83085851 239.72372299 167.0314525 246.04690172 171.22926331 252.37194824 C173.17842894 255.30776927 175.12950952 258.24231503 177.08084106 261.17669678 C178.43653773 263.21699068 179.78950292 265.25907499 181.14233398 267.30126953 C185.57582025 273.97697813 190.09427799 280.57595696 194.74609375 287.1015625 C201.96054794 297.23946499 208.75081846 307.65169123 215.5625 318.0625 C223.16536602 329.67103889 230.78150817 341.25919014 238.69238281 352.66088867 C242.20310755 357.72376254 245.59846922 362.86341512 249 368 C256.43650898 379.20936918 263.97350671 390.35096866 271.5 401.5 C285.73033706 422.57946792 285.73033706 422.57946792 291.83105469 431.75341797 C297.94950186 440.91180501 304.13159407 450.02779135 310.29492188 459.15600586 C319.45079821 472.71762053 328.55733117 486.30993391 337.60964966 499.94081116 C339.80655824 503.24804255 342.00493754 506.5542948 344.20361328 509.86035156 C345.31512334 511.53264978 346.42580483 513.20549902 347.53564453 514.87890625 C353.23150863 523.46553476 358.96253945 532.01239328 364.9453125 540.40234375 C371.89383097 550.15696985 378.43959509 560.16956528 385 570.1875 C387.54670681 574.06867477 390.09534737 577.94857683 392.64453125 581.828125 C393.27059769 582.78138168 393.89666412 583.73463837 394.54170227 584.71678162 C398.42040055 590.61663183 402.32558504 596.49769955 406.26171875 602.359375 C406.73288116 603.06173782 407.20404358 603.76410065 407.68948364 604.48774719 C409.84885345 607.70515229 412.01329408 610.91896556 414.18554688 614.12768555 C414.94027115 615.25037605 415.69483884 616.37317183 416.44921875 617.49609375 C417.09205811 618.44669678 417.73489746 619.3972998 418.3972168 620.37670898 C419.91755109 622.86505506 421.01206471 625.26248619 422 628 C418.51460005 626.83820002 418.14478166 626.13580329 416.20361328 623.14892578 C415.66519806 622.32941437 415.12678284 621.50990295 414.572052 620.66555786 C413.70494095 619.31903641 413.70494095 619.31903641 412.8203125 617.9453125 C412.2117038 617.01516327 411.60309509 616.08501404 410.9760437 615.12667847 C409.01796218 612.13108199 407.07107365 609.12840822 405.125 606.125 C402.58918326 602.22964995 400.04902061 598.33714704 397.5078125 594.4453125 C396.87570358 593.47607346 396.24359467 592.50683441 395.59233093 591.50822449 C390.05261287 583.03375658 384.34803548 574.68006982 378.60668945 566.34155273 C373.50407918 558.90512436 368.47892646 551.41546704 363.4375 543.9375 C362.81883057 543.02025146 362.20016113 542.10300293 361.56274414 541.15795898 C351.74760122 526.60309415 341.99125693 512.00988556 332.26638794 497.39459229 C322.7479858 483.09151289 313.16056459 468.83629731 303.54248047 454.60009766 C294.44550304 441.13326573 285.40453725 427.6305801 276.40319824 414.09967041 C267.86084113 401.26136106 259.25771302 388.46520339 250.625 375.6875 C241.03379711 361.49098717 231.4906289 347.26394422 222 333 C212.55096429 318.79859176 203.04967522 304.63392863 193.5 290.5 C183.36487159 275.49957555 173.29056455 260.46030707 163.26226807 245.38827515 C153.74522379 231.08731302 144.15915664 216.83421333 134.54248047 202.60009766 C125.44550304 189.13326573 116.40453725 175.6305801 107.40319824 162.09967041 C98.86084113 149.26136106 90.25771302 136.46520339 81.625 123.6875 C71.4539815 108.63276743 61.3431519 93.53958155 51.27893066 78.41326904 C40.26442766 61.86179845 29.16017993 45.37181329 18.02789307 28.89938354 C15.86130875 25.69186804 13.69786036 22.48224341 11.5345459 19.27252197 C10.00938069 17.01389194 8.47813404 14.75947435 6.94628906 12.50537109 C6.01868204 11.13262086 5.09126215 9.75974416 4.1640625 8.38671875 C3.73837982 7.76400589 3.31269714 7.14129303 2.87411499 6.49971008 C0 2.22720588 0 2.22720588 0 0 Z " fill="#3E3532" transform="translate(728,171)"/>
<path d="M0 0 C0.66 0 1.32 0 2 0 C3.62616776 2.40902547 5.14172464 4.81708081 6.625 7.3125 C9.37731144 11.91886046 12.22380403 16.36162233 15.4296875 20.66796875 C22.88287876 30.78853473 29.56939685 41.45995091 36.44580078 51.97558594 C45.39719741 65.70863246 45.39719741 65.70863246 54.88867188 79.06884766 C60.32232982 86.61238341 65.36029637 94.44228464 70.5 102.1875 C71.7639943 104.08821782 73.02823758 105.9887701 74.29272461 107.88916016 C77.33753817 112.46606796 80.38010653 117.04446153 83.42156982 121.62359619 C92.1227685 134.72367624 100.84850012 147.80485835 109.6875 160.8125 C127.3744121 186.84517044 145.03472944 212.89616203 162.38793945 239.15298462 C163.57983848 240.95585115 164.7731794 242.75776533 165.96801758 244.5586853 C167.62270007 247.0542878 169.2712583 249.55381981 170.91796875 252.0546875 C171.40613571 252.78914597 171.89430267 253.52360443 172.39726257 254.28031921 C174.67857146 257.76058663 176.64804503 261.03071826 178 265 C174.51460005 263.83820002 174.14478166 263.13580329 172.20361328 260.14892578 C171.66519806 259.32941437 171.12678284 258.50990295 170.572052 257.66555786 C169.99397797 256.76787689 169.41590393 255.87019592 168.8203125 254.9453125 C168.2117038 254.01516327 167.60309509 253.08501404 166.9760437 252.12667847 C165.01796218 249.13108199 163.07107365 246.12840822 161.125 243.125 C158.58918326 239.22964995 156.04902061 235.33714704 153.5078125 231.4453125 C152.87570358 230.47607346 152.24359467 229.50683441 151.59233093 228.50822449 C146.05261287 220.03375658 140.34803548 211.68006982 134.60668945 203.34155273 C129.50407918 195.90512436 124.47892646 188.41546704 119.4375 180.9375 C118.81883057 180.02025146 118.20016113 179.10300293 117.56274414 178.15795898 C107.74760122 163.60309415 97.99125693 149.00988556 88.26638794 134.39459229 C78.75066942 120.09554551 69.16630141 105.84410567 59.55053711 91.61218262 C49.74209105 77.09312728 39.99887091 62.53202307 30.30273438 47.93774414 C25.15011181 40.18781237 19.967871 32.46089558 14.7109375 24.78125 C14.21253357 24.0518219 13.71412964 23.3223938 13.20062256 22.57086182 C10.85662087 19.14107643 8.50613294 15.71614538 6.14257812 12.29980469 C5.32133439 11.10110337 4.50035438 9.90222132 3.6796875 8.703125 C2.96538574 7.66833008 2.25108398 6.63353516 1.51513672 5.56738281 C0 3 0 3 0 0 Z " fill="#2D2421" transform="translate(972,534)"/>
<path d="M0 0 C1.125 3.75 1.125 3.75 0 6 C-0.85464844 7.02287109 -0.85464844 7.02287109 -1.7265625 8.06640625 C-4.64262925 11.82923465 -6.97039835 15.8353679 -9.375 19.9375 C-15.46928936 30.21498083 -21.85779975 40.28731521 -28.30371094 50.34667969 C-30.92703373 54.45005794 -33.52712938 58.56797674 -36.125 62.6875 C-36.85916138 63.85128174 -36.85916138 63.85128174 -37.6081543 65.03857422 C-38.58731908 66.59077017 -39.56640492 68.14301591 -40.54541016 69.6953125 C-41.99081789 71.98545164 -43.43840684 74.27419657 -44.88671875 76.5625 C-50.4117079 85.29465086 -55.90583093 94.04526901 -61.375 102.8125 C-67.41686985 112.49524107 -73.52319989 122.13513447 -79.66015625 131.7578125 C-84.30851522 139.04761989 -88.92000322 146.36063971 -93.53222656 153.67333984 C-96.01983357 157.61660245 -98.51006414 161.55820768 -101 165.5 C-102.00001224 167.0833256 -103.00001225 168.66665893 -104 170.25 C-110 179.75 -110 179.75 -111.50170898 182.12768555 C-112.49603689 183.70205157 -113.4903405 185.27643294 -114.48461914 186.85083008 C-117.07119733 190.94649309 -119.65826871 195.04184342 -122.24609375 199.13671875 C-122.78041016 199.98234375 -123.31472656 200.82796875 -123.86523438 201.69921875 C-124.87809671 203.30218349 -125.89110611 204.90505533 -126.90429688 206.5078125 C-127.36771484 207.24128906 -127.83113281 207.97476563 -128.30859375 208.73046875 C-128.75831543 209.4373584 -129.20803711 210.14424805 -129.67138672 210.87255859 C-130.57544357 212.32017921 -131.45658604 213.78230779 -132.31689453 215.25634766 C-132.7395459 215.97226074 -133.16219727 216.68817383 -133.59765625 217.42578125 C-133.96511963 218.06555908 -134.33258301 218.70533691 -134.71118164 219.36450195 C-136.24887325 221.31581774 -137.73097547 222.04741098 -140 223 C-138.71026054 219.5372843 -137.20610762 216.53682078 -135.19921875 213.4375 C-134.64089355 212.56907471 -134.08256836 211.70064941 -133.50732422 210.8059082 C-132.90678223 209.8799585 -132.30624023 208.95400879 -131.6875 208 C-130.41165138 206.01503532 -129.13693848 204.02934025 -127.86328125 202.04296875 C-126.89382568 200.53162354 -126.89382568 200.53162354 -125.90478516 198.98974609 C-123.01742097 194.45774637 -120.19305024 189.8878135 -117.375 185.3125 C-112.84774542 177.97095086 -108.27523073 170.66058167 -103.65966797 163.37426758 C-99.5812865 156.93180962 -95.53707281 150.46841039 -91.5 144 C-86.54323506 136.05903469 -81.56495227 128.13243137 -76.55859375 120.22265625 C-72.51576885 113.82960248 -68.5053202 107.41660387 -64.5 101 C-59.54317759 93.05907037 -54.56495249 85.13243171 -49.55859375 77.22265625 C-45.51576885 70.82960248 -41.5053202 64.41660387 -37.5 58 C-32.55030069 50.07048172 -27.5837687 42.15229808 -22.57836914 34.2578125 C-19.70368015 29.71796342 -16.85632702 25.1622441 -14.02734375 20.59375 C-13.34865234 19.49998047 -12.66996094 18.40621094 -11.97070312 17.27929688 C-10.63915322 15.131677 -9.31089937 12.98200919 -7.98632812 10.83007812 C-7.38111328 9.85490234 -6.77589844 8.87972656 -6.15234375 7.875 C-5.61601318 7.00617188 -5.07968262 6.13734375 -4.52709961 5.2421875 C-3.15882674 3.23319981 -1.78512961 1.63762312 0 0 Z " fill="#252321" transform="translate(633,96)"/>
<path d="M0 0 C5.38469616 2.46862685 7.72429617 6.52238949 10.82421875 11.33203125 C11.37052444 12.16022873 11.91683014 12.98842621 12.47969055 13.84172058 C14.2255754 16.49226874 15.9570708 19.15184148 17.6875 21.8125 C19.95800171 25.28013442 22.23417015 28.74402217 24.51171875 32.20703125 C25.34705391 33.47997795 25.34705391 33.47997795 26.19926453 34.77864075 C29.82654208 40.28554615 33.57066183 45.68552052 37.43685913 51.02651978 C41.61548885 56.81176735 45.55993021 62.74470159 49.49569702 68.69680786 C51.8684378 72.28382618 54.25079523 75.8644503 56.6328125 79.4453125 C57.14130234 80.20991287 57.64979218 80.97451324 58.1736908 81.76228333 C64.47112557 91.22294035 70.82885682 100.64292181 77.1875 110.0625 C77.79753876 110.96631409 78.40757751 111.87012817 79.03610229 112.80133057 C82.13358772 117.39014129 85.23181094 121.97845308 88.33056641 126.56640625 C91.90291459 131.85572721 95.47318693 137.14644677 99.04296875 142.4375 C113.34597003 163.63583781 127.66611571 184.82253336 142 206 C141.67 206.66 141.34 207.32 141 208 C135.50958744 200.57436011 130.27270264 193.02024026 125.1875 185.3125 C119.80095202 177.19070735 114.36524778 169.11066698 108.82421875 161.09375 C105.44395543 156.20263904 102.09760143 151.28849787 98.75 146.375 C98.11497559 145.44341064 97.47995117 144.51182129 96.82568359 143.55200195 C93.63736336 138.87389874 90.45168499 134.1940187 87.26953125 129.51171875 C80.83705273 120.05323827 74.36147514 110.6282695 67.8125 101.25 C62.63980637 93.84180258 57.55779022 86.38522563 52.57739258 78.84667969 C48.47857364 72.66503513 44.249503 66.57878241 40 60.5 C34.65122643 52.84797517 29.38803038 45.15025739 24.2331543 37.36645508 C20.97012625 32.44263443 17.66262202 27.55248523 14.3125 22.6875 C13.86503418 22.0370874 13.41756836 21.3866748 12.95654297 20.71655273 C10.75788586 17.52741148 8.5451848 14.349012 6.3125 11.18359375 C5.6796106 10.28217651 5.6796106 10.28217651 5.03393555 9.36254883 C3.88714106 7.73118037 2.73477719 6.10373103 1.58203125 4.4765625 C0 2 0 2 0 0 Z " fill="#453D3E" transform="translate(861,436)"/>
<path d="M0 0 C4.50770472 4.12874068 7.67622566 8.73131442 10.98828125 13.84765625 C11.56049408 14.72054291 12.13270691 15.59342957 12.72225952 16.49276733 C14.59113475 19.3458139 16.45182757 22.20409853 18.3125 25.0625 C20.91688691 29.04583278 23.52499907 33.02672245 26.1328125 37.0078125 C26.78950424 38.01164474 27.44619598 39.01547699 28.12278748 40.04972839 C32.43767919 46.63928075 36.79080473 53.20170578 41.1796875 59.7421875 C41.73675888 60.57304367 42.29383026 61.40389984 42.86778259 62.25993347 C44.99069979 65.42462694 47.1144656 68.58869847 49.24673462 71.74710083 C50.69315636 73.88998781 52.13411167 76.03646017 53.57421875 78.18359375 C53.99681976 78.80559662 54.41942078 79.42759949 54.85482788 80.06845093 C56.99902765 83.27503434 58.72802959 86.35322692 60 90 C56.51460005 88.83820002 56.14478166 88.13580329 54.20361328 85.14892578 C53.66519806 84.32941437 53.12678284 83.50990295 52.572052 82.66555786 C51.99397797 81.76787689 51.41590393 80.87019592 50.8203125 79.9453125 C50.2117038 79.01516327 49.60309509 78.08501404 48.9760437 77.12667847 C47.01796218 74.13108199 45.07107365 71.12840822 43.125 68.125 C40.58918326 64.22964996 38.04903329 60.33713875 35.5078125 56.4453125 C34.87951035 55.48196487 34.25120819 54.51861725 33.60386658 53.52607727 C26.09091497 42.03366106 18.30924136 30.72956306 10.44921875 19.47265625 C9.49692383 18.10270508 9.49692383 18.10270508 8.52539062 16.70507812 C7.2561002 14.88005162 5.97958999 13.06003273 4.69726562 11.24414062 C4.07916016 10.35017578 3.46105469 9.45621094 2.82421875 8.53515625 C2.27854248 7.755354 1.73286621 6.97555176 1.1706543 6.17211914 C0 4 0 4 0 0 Z " fill="#1D1412" transform="translate(1090,709)"/>
<path d="M0 0 C0.66 0 1.32 0 2 0 C3.57448789 2.09262982 5.01927052 4.18336662 6.4453125 6.375 C7.10825569 7.37581604 7.10825569 7.37581604 7.78459167 8.39685059 C9.23778627 10.59375332 10.68127408 12.79686577 12.125 15 C13.12973836 16.52195605 14.13519561 18.04343775 15.14135742 19.56445312 C17.16081643 22.6189557 19.17692235 25.67562455 21.18994141 28.734375 C24.8777322 34.33609827 28.59287256 39.91936803 32.3125 45.5 C33.24364624 46.90427246 33.24364624 46.90427246 34.19360352 48.33691406 C37.66866031 53.5645808 41.20281671 58.74451908 44.796875 63.890625 C45.99563327 65.61681999 47.19352489 67.34361335 48.39120483 69.07055664 C49.5376728 70.71440191 50.698019 72.34854031 51.85864258 73.98242188 C52.54595459 74.97306641 53.2332666 75.96371094 53.94140625 76.984375 C54.55701416 77.85803711 55.17262207 78.73169922 55.80688477 79.63183594 C57.20851942 82.41388139 56.88761586 83.13897988 56 86 C52.08896305 80.20621349 48.17874564 74.41187447 44.26904297 68.6171875 C42.94467817 66.65450128 41.62013985 64.69193213 40.29541016 62.72949219 C33.69214798 52.94725239 27.09635719 43.16080392 20.5625 33.33203125 C17.26416223 28.37082119 13.94029652 23.43189325 10.546875 18.53515625 C9.90878906 17.61412109 9.27070312 16.69308594 8.61328125 15.74414062 C7.32837144 13.89489412 6.03903577 12.04871767 4.74609375 10.20507812 C4.12347656 9.30337891 3.50085937 8.40167969 2.859375 7.47265625 C2.03131348 6.28555054 2.03131348 6.28555054 1.18652344 5.07446289 C0 3 0 3 0 0 Z " fill="#251C18" transform="translate(1033,625)"/>
<path d="M0 0 C0.495 0.99 0.495 0.99 1 2 C0.20239258 3.66967773 0.20239258 3.66967773 -1.10546875 5.68359375 C-1.58822266 6.43640625 -2.07097656 7.18921875 -2.56835938 7.96484375 C-3.36983398 9.18880859 -3.36983398 9.18880859 -4.1875 10.4375 C-5.30620018 12.17564573 -6.4246839 13.91393078 -7.54296875 15.65234375 C-8.11966309 16.5429248 -8.69635742 17.43350586 -9.29052734 18.35107422 C-11.89136622 22.381223 -14.44493884 26.44073935 -17 30.5 C-17.99711943 32.0796016 -18.99451649 33.65902797 -19.9921875 35.23828125 C-20.48686523 36.02154785 -20.98154297 36.80481445 -21.49121094 37.61181641 C-23.01692094 40.02678327 -24.54351473 42.44118948 -26.0703125 44.85546875 C-26.57626953 45.65605713 -27.08222656 46.45664551 -27.60351562 47.28149414 C-28.60884296 48.87127285 -29.61533259 50.46031722 -30.62304688 52.04858398 C-33.06500698 55.90386479 -35.47782241 59.77246966 -37.8359375 63.6796875 C-38.28565918 64.41872314 -38.73538086 65.15775879 -39.19873047 65.91918945 C-40.04218501 67.30843662 -40.87767823 68.70256118 -41.70361328 70.10229492 C-43.72631221 73.42047404 -45.21201687 75.75168738 -49 77 C-47.71026054 73.5372843 -46.20610762 70.53682078 -44.19921875 67.4375 C-43.64089355 66.56907471 -43.08256836 65.70064941 -42.50732422 64.8059082 C-41.90678223 63.8799585 -41.30624023 62.95400879 -40.6875 62 C-39.41165138 60.01503532 -38.13693848 58.02934025 -36.86328125 56.04296875 C-36.21697754 55.03540527 -35.57067383 54.0278418 -34.90478516 52.98974609 C-32.01742068 48.45774592 -29.19307744 43.88779727 -26.375 39.3125 C-22.09597625 32.37444332 -17.78918936 25.45524833 -13.4375 18.5625 C-12.94878418 17.78753174 -12.46006836 17.01256348 -11.95654297 16.21411133 C-4.12221146 3.82776779 -4.12221146 3.82776779 0 0 Z " fill="#191816" transform="translate(542,242)"/>
<path d="M0 0 C1.125 3.75 1.125 3.75 0 6 C-0.56976562 6.68191406 -1.13953125 7.36382812 -1.7265625 8.06640625 C-4.64261327 11.82921404 -6.9705171 15.8353113 -9.375 19.9375 C-13.95633908 27.66670886 -18.66691928 35.30062646 -23.5 42.875 C-24.08700684 43.79531006 -24.67401367 44.71562012 -25.27880859 45.66381836 C-33.94523756 59.20683514 -33.94523756 59.20683514 -38 63 C-38.5775 63.5775 -39.155 64.155 -39.75 64.75 C-40.1625 65.1625 -40.575 65.575 -41 66 C-39.56581768 60.84962151 -37.26017289 57.00005604 -34.3125 52.625 C-33.3170997 51.1184482 -32.32372718 49.6105553 -31.33203125 48.1015625 C-30.79658691 47.28719727 -30.26114258 46.47283203 -29.70947266 45.63378906 C-26.57131405 40.79881976 -23.54234843 35.89559091 -20.5 31 C-15.93947716 23.67998418 -11.36022314 16.37403535 -6.6875 9.125 C-6.01267578 8.073125 -6.01267578 8.073125 -5.32421875 7 C-3.6814895 4.46403672 -2.14311232 2.14311232 0 0 Z " fill="#2C2927" transform="translate(633,96)"/>
<path d="M0 0 C3.11801025 1.33375356 4.67964069 2.53461397 6.50390625 5.3828125 C6.9827124 6.11653076 7.46151855 6.85024902 7.95483398 7.60620117 C8.48536377 8.43740479 9.01589355 9.2686084 9.5625 10.125 C10.81324819 12.04157706 12.06603859 13.95682218 13.3203125 15.87109375 C13.67159714 16.40916153 14.02288177 16.94722931 14.3848114 17.50160217 C19.24062476 24.92587191 24.22589618 32.26350509 29.19561768 39.61175537 C30.94176402 42.19380527 32.6866419 44.77670789 34.43115234 47.35986328 C45.61107535 63.91312623 56.8035525 80.45791072 68 97 C67.67 97.66 67.34 98.32 67 99 C61.50958744 91.57436011 56.27270264 84.02024026 51.1875 76.3125 C45.80095202 68.19070735 40.36524778 60.11066698 34.82421875 52.09375 C30.8063257 46.28001335 26.83360231 40.43539164 22.85644531 34.59375 C19.504853 29.67147266 16.14707067 24.75363533 12.77734375 19.84375 C12.0925293 18.84424316 11.40771484 17.84473633 10.70214844 16.81494141 C9.38577597 14.89398197 8.06749745 12.97432694 6.74707031 11.05615234 C6.1537793 10.18941895 5.56048828 9.32268555 4.94921875 8.4296875 C4.42674561 7.66897949 3.90427246 6.90827148 3.3659668 6.12451172 C2.08628402 4.13419903 1.01153651 2.1369125 0 0 Z " fill="#2D2525" transform="translate(935,545)"/>
<path d="M0 0 C0.33 0.66 0.66 1.32 1 2 C0.21826172 3.65380859 0.21826172 3.65380859 -1.0703125 5.6484375 C-1.78755493 6.77173462 -1.78755493 6.77173462 -2.51928711 7.91772461 C-3.31411499 9.13407593 -3.31411499 9.13407593 -4.125 10.375 C-4.66326416 11.20974854 -5.20152832 12.04449707 -5.75610352 12.90454102 C-6.9050311 14.68434333 -8.05724372 16.4620285 -9.21240234 18.23779297 C-11.00122958 21.00189995 -12.76307566 23.78163821 -14.51953125 26.56640625 C-15.65839706 28.35706163 -16.79770723 30.1474345 -17.9375 31.9375 C-18.46811035 32.78296387 -18.9987207 33.62842773 -19.54541016 34.49951172 C-22.28657686 38.76422287 -24.72328301 42.10947489 -29 45 C-27.62691809 41.27701281 -25.92411808 38.0698474 -23.8046875 34.71875 C-22.85952271 33.21634766 -22.85952271 33.21634766 -21.89526367 31.68359375 C-21.22857666 30.63300781 -20.56188965 29.58242187 -19.875 28.5 C-18.51377674 26.34409476 -17.15309542 24.18784724 -15.79296875 22.03125 C-15.1386084 20.99484375 -14.48424805 19.9584375 -13.81005859 18.890625 C-12.28239158 16.45097334 -10.7797222 14.00059982 -9.30078125 11.53125 C-8.93291504 10.91830078 -8.56504883 10.30535156 -8.18603516 9.67382812 C-7.25838988 8.11883155 -6.33787988 6.55958444 -5.41796875 5 C-4.95003906 4.34 -4.48210938 3.68 -4 3 C-3.34 3 -2.68 3 -2 3 C-1.34 2.01 -0.68 1.02 0 0 Z " fill="#231F1D" transform="translate(568,201)"/>
<path d="M0 0 C3.86592529 3.50041345 6.52223684 7.53806614 9.3515625 11.87109375 C10.10172134 13.01010887 10.10172134 13.01010887 10.86703491 14.1721344 C11.91988688 15.77345429 12.97034679 17.3763492 14.01855469 18.98071289 C15.62003874 21.42991259 17.23131647 23.87245204 18.84375 26.31445312 C19.8677817 27.87461015 20.89123869 29.43514458 21.9140625 30.99609375 C22.39428864 31.72332138 22.87451477 32.45054901 23.36929321 33.19981384 C25.65205236 36.70719181 27.63899235 40.01001659 29 44 C25.59116114 42.86372038 25.20366425 42.24810327 23.27270508 39.36987305 C22.75239212 38.60205002 22.23207916 37.83422699 21.69599915 37.0431366 C21.14276474 36.20776871 20.58953033 35.37240082 20.01953125 34.51171875 C19.44667892 33.65697464 18.8738266 32.80223053 18.28361511 31.92158508 C17.07348511 30.11096644 15.86748112 28.29758445 14.6652832 26.48168945 C12.82148919 23.70105663 10.95961331 20.9331921 9.09570312 18.16601562 C7.92336468 16.40699226 6.75210423 14.64724987 5.58203125 12.88671875 C5.02272415 12.05742355 4.46341705 11.22812836 3.88716125 10.373703 C3.37630478 9.59642349 2.8654483 8.81914398 2.33911133 8.01831055 C1.65985344 6.99691231 1.65985344 6.99691231 0.96687317 5.95487976 C0 4 0 4 0 0 Z " fill="#130B09" transform="translate(1121,755)"/>
<path d="M0 0 C0 3.67807728 -1.00731113 4.96384978 -2.96484375 8.05078125 C-3.59616211 9.05359131 -4.22748047 10.05640137 -4.87792969 11.08959961 C-5.55758789 12.15315674 -6.23724609 13.21671387 -6.9375 14.3125 C-7.62102539 15.39088135 -8.30455078 16.4692627 -9.00878906 17.58032227 C-10.37471015 19.73334327 -11.74332028 21.88466088 -13.11474609 24.03417969 C-14.72507063 26.56749002 -16.31626178 29.11072753 -17.89453125 31.6640625 C-18.67950925 32.92198625 -19.46464799 34.17980972 -20.25 35.4375 C-21.24773437 37.04431641 -21.24773437 37.04431641 -22.265625 38.68359375 C-24 41 -24 41 -27 42 C-27 41.34 -27 40.68 -27 40 C-26.34 40 -25.68 40 -25 40 C-24.89510254 39.27635254 -24.79020508 38.55270508 -24.68212891 37.80712891 C-23.93319877 34.72509643 -22.81073383 32.73863387 -21.0859375 30.0859375 C-20.48910156 29.15910156 -19.89226562 28.23226563 -19.27734375 27.27734375 C-18.64957031 26.31957031 -18.02179688 25.36179687 -17.375 24.375 C-16.77042969 23.44042969 -16.16585938 22.50585938 -15.54296875 21.54296875 C-14.32042413 19.65310766 -13.09352116 17.76605893 -11.86230469 15.88183594 C-10.58328575 13.90260946 -9.32450949 11.91019947 -8.08300781 9.90722656 C-7.47038086 8.91948242 -6.85775391 7.93173828 -6.2265625 6.9140625 C-5.67822754 6.01896973 -5.12989258 5.12387695 -4.56494141 4.20166016 C-3 2 -3 2 0 0 Z " fill="#0D0D0B" transform="translate(495,317)"/>
<path d="M0 0 C0.66 0 1.32 0 2 0 C3.62628704 2.40920218 5.13920586 4.81840868 6.625 7.3125 C10.77706668 14.12998874 15.24221575 20.58865748 20 27 C21.20313076 28.63444179 22.3917969 30.27967677 23.5625 31.9375 C24.05878906 32.62714844 24.55507813 33.31679688 25.06640625 34.02734375 C26.2308822 36.48784732 25.75514178 37.46183871 25 40 C24.34926514 39.0212793 23.69853027 38.04255859 23.02807617 37.03417969 C20.6083572 33.39553602 18.18709948 29.7579185 15.76538086 26.12060547 C14.71841249 24.54764201 13.67185896 22.97440236 12.62573242 21.40087891 C11.12007455 19.13631225 9.61291681 16.87275026 8.10546875 14.609375 C7.40685982 13.55759064 7.40685982 13.55759064 6.69413757 12.48455811 C4.92030263 9.82365352 3.17224773 7.21665625 1.1809082 4.71191406 C0 3 0 3 0 0 Z " fill="#352C29" transform="translate(972,534)"/>
<path d="M0 0 C0.66 0.66 1.32 1.32 2 2 C-0.90893163 6.61784563 -3.82195664 11.23303996 -6.7421875 15.84375 C-8.74149305 19.00141126 -10.7273604 22.16646679 -12.6953125 25.34375 C-13.48426119 26.60423791 -14.27331624 27.86465925 -15.0625 29.125 C-15.75472656 30.24132812 -16.44695312 31.35765625 -17.16015625 32.5078125 C-19 35 -19 35 -22 36 C-20.69993988 32.49602843 -19.17025762 29.49885119 -17.125 26.375 C-16.5165625 25.4365625 -15.908125 24.498125 -15.28125 23.53125 C-14.930625 22.99113281 -14.58 22.45101562 -14.21875 21.89453125 C-11.10376126 17.05232119 -8.0611626 12.16327711 -5.00048828 7.28662109 C-4.49759277 6.48820801 -3.99469727 5.68979492 -3.4765625 4.8671875 C-3.02361816 4.14644043 -2.57067383 3.42569336 -2.10400391 2.68310547 C-1 1 -1 1 0 0 Z " fill="#090908" transform="translate(220,753)"/>
<path d="M0 0 C3.15573161 1.34360392 4.71328134 2.58529204 6.55859375 5.46484375 C7.02104492 6.17398926 7.48349609 6.88313477 7.95996094 7.61376953 C8.44754883 8.38060059 8.93513672 9.14743164 9.4375 9.9375 C10.49222651 11.55941582 11.54826422 13.18047957 12.60546875 14.80078125 C13.15509277 15.64721191 13.7047168 16.49364258 14.27099609 17.36572266 C17.20039475 21.82889853 20.22583597 26.22572169 23.25 30.625 C23.82290771 31.46023193 24.39581543 32.29546387 24.98608398 33.15600586 C26.32301861 35.1047198 27.66096566 37.05272855 29 39 C27.515 39.495 27.515 39.495 26 40 C25.56768066 39.34628418 25.13536133 38.69256836 24.68994141 38.01904297 C13.44820296 21.01469473 13.44820296 21.01469473 1.625 4.4140625 C0 2 0 2 0 0 Z " fill="#3D3736" transform="translate(908,505)"/>
<path d="M0 0 C3.46467039 3.20116164 6.04439299 6.79025428 8.625 10.70703125 C9.05377441 11.35065109 9.48254883 11.99427094 9.92431641 12.65739441 C10.82738866 14.01501289 11.72822719 15.37411956 12.62695312 16.73461914 C13.99083468 18.79862979 15.36197504 20.85766182 16.734375 22.91601562 C17.61501792 24.24189895 18.49523995 25.56806195 19.375 26.89453125 C19.77928223 27.50206741 20.18356445 28.10960358 20.60009766 28.73554993 C23.23858698 32.73675778 25.6584505 36.8177547 28 41 C27.01 41 26.02 41 25 41 C23.69013977 39.57756042 23.69013977 39.57756042 22.36450195 37.55932617 C21.86420975 36.80822067 21.36391754 36.05711517 20.84846497 35.2832489 C20.31710434 34.46145645 19.78574371 33.639664 19.23828125 32.79296875 C18.68762497 31.95663406 18.13696869 31.12029938 17.56962585 30.25862122 C16.40556948 28.48551685 15.24667626 26.70901385 14.0925293 24.92944336 C12.32147938 22.20133177 10.53230348 19.48582245 8.74023438 16.77148438 C7.61348215 15.0501995 6.48779505 13.32821682 5.36328125 11.60546875 C4.55713127 10.38188911 4.55713127 10.38188911 3.73469543 9.1335907 C3.24385971 8.37302872 2.75302399 7.61246674 2.24731445 6.82885742 C1.5947039 5.8262513 1.5947039 5.8262513 0.9289093 4.8033905 C0 3 0 3 0 0 Z " fill="#3D3330" transform="translate(945,493)"/>
<path d="M0 0 C0.66 0.33 1.32 0.66 2 1 C1.3503125 2.0209375 1.3503125 2.0209375 0.6875 3.0625 C-1.07580667 5.98299858 -1.07580667 5.98299858 -2.328125 9.234375 C-3.98468322 13.15179319 -6.11596874 16.63350306 -8.4375 20.1875 C-8.81970703 20.79013672 -9.20191406 21.39277344 -9.59570312 22.01367188 C-11.7797078 25.39164854 -14.04521478 28.27299265 -17 31 C-17.5775 31.5775 -18.155 32.155 -18.75 32.75 C-19.1625 33.1625 -19.575 33.575 -20 34 C-18.52278441 28.56077266 -15.90943741 24.43685088 -12.8125 19.8125 C-11.82258411 18.3101149 -10.83300128 16.8075103 -9.84375 15.3046875 C-9.36035156 14.57475586 -8.87695312 13.84482422 -8.37890625 13.09277344 C-6.49107366 10.22759976 -4.64926603 7.33567591 -2.8125 4.4375 C-2.26207031 3.56996094 -1.71164062 2.70242187 -1.14453125 1.80859375 C-0.76683594 1.21175781 -0.38914062 0.61492187 0 0 Z " fill="#33312E" transform="translate(612,128)"/>
<path d="M0 0 C0.66 0.66 1.32 1.32 2 2 C-0.07034024 5.40646065 -2.15182541 8.80581389 -4.24389648 12.19897461 C-4.95402987 13.35430014 -5.66108612 14.51152294 -6.36499023 15.6706543 C-7.37714152 17.33617455 -8.40130557 18.99437586 -9.42578125 20.65234375 C-10.34484253 22.15269165 -10.34484253 22.15269165 -11.2824707 23.68334961 C-13 26 -13 26 -16 27 C-14.69027219 23.51987713 -13.16259353 20.39372312 -11.25 17.20703125 C-10.7240625 16.32982422 -10.198125 15.45261719 -9.65625 14.54882812 C-8.83640625 13.1943457 -8.83640625 13.1943457 -8 11.8125 C-7.4534375 10.89791016 -6.906875 9.98332031 -6.34375 9.04101562 C-2.26032004 2.26032004 -2.26032004 2.26032004 0 0 Z " fill="#080606" transform="translate(250,705)"/>
<path d="M0 0 C0 4.76200894 -2.80416647 8.08257495 -5.25 12.0625 C-5.74113281 12.89072266 -6.23226563 13.71894531 -6.73828125 14.57226562 C-7.46337891 15.76045898 -7.46337891 15.76045898 -8.203125 16.97265625 C-8.64301758 17.69718994 -9.08291016 18.42172363 -9.53613281 19.16821289 C-11.17390894 21.21761821 -12.59442642 22.01376631 -15 23 C-13.29647399 17.92998211 -10.40136888 13.69576679 -7.5 9.25 C-6.75169922 8.08017578 -6.75169922 8.08017578 -5.98828125 6.88671875 C-5.26705078 5.77490234 -5.26705078 5.77490234 -4.53125 4.640625 C-4.09361328 3.96547852 -3.65597656 3.29033203 -3.20507812 2.59472656 C-2 1 -2 1 0 0 Z " fill="#110F0E" transform="translate(508,296)"/>
<path d="M0 0 C0.33 0.66 0.66 1.32 1 2 C0.05957031 3.92358398 0.05957031 3.92358398 -1.421875 6.24609375 C-2.21851563 7.50196289 -2.21851563 7.50196289 -3.03125 8.78320312 C-3.5984375 9.65912109 -4.165625 10.53503906 -4.75 11.4375 C-5.30171875 12.30955078 -5.8534375 13.18160156 -6.421875 14.08007812 C-10.943508 21.15056435 -10.943508 21.15056435 -14 24 C-12.54310401 14.53017603 -6.90461261 6.50210156 0 0 Z " fill="#13120F" transform="translate(542,242)"/>
<path d="M0 0 C1.75 0.125 1.75 0.125 4 1 C7.73795473 5.53085422 9.36050263 10.41080442 11 16 C5.61304112 13.6234005 2.58829515 9.13211787 0 4 C0 2.68 0 1.36 0 0 Z " fill="#484242" transform="translate(682,171)"/>
<path d="M0 0 C0.33 0.66 0.66 1.32 1 2 C-0.61329003 5.3543198 -2.74306987 8.43123287 -4.75 11.5625 C-5.30171875 12.45130859 -5.8534375 13.34011719 -6.421875 14.25585938 C-6.958125 15.10083984 -7.494375 15.94582031 -8.046875 16.81640625 C-8.54026367 17.59443604 -9.03365234 18.37246582 -9.54199219 19.17407227 C-11 21 -11 21 -14 22 C-14 21.34 -14 20.68 -14 20 C-13.34 20 -12.68 20 -12 20 C-11.92652344 19.32453125 -11.85304688 18.6490625 -11.77734375 17.953125 C-10.74351468 14.02561357 -8.79039213 11.1110141 -6.5625 7.75 C-6.15451172 7.11320312 -5.74652344 6.47640625 -5.32617188 5.8203125 C-2.27111287 1.13555643 -2.27111287 1.13555643 0 0 Z " fill="#070706" transform="translate(482,337)"/>
<path d="M0 0 C3.73560006 1.47443118 5.24488622 3.39009225 7.41796875 6.71875 C8.03220703 7.65074219 8.64644531 8.58273437 9.27929688 9.54296875 C9.90900391 10.51878906 10.53871094 11.49460937 11.1875 12.5 C11.82880859 13.47582031 12.47011719 14.45164062 13.13085938 15.45703125 C17.77139718 22.54279436 17.77139718 22.54279436 19 25 C18.01 25 17.02 25 16 25 C14.40600586 23.13574219 14.40600586 23.13574219 12.71484375 20.546875 C12.10189453 19.61746094 11.48894531 18.68804688 10.85742188 17.73046875 C10.22384766 16.74691406 9.59027344 15.76335938 8.9375 14.75 C8.30005859 13.78191406 7.66261719 12.81382812 7.00585938 11.81640625 C1.93441565 4.06762501 1.93441565 4.06762501 0 0 Z " fill="#332B2B" transform="translate(935,545)"/>
<path d="M0 0 C1.125 3.75 1.125 3.75 0 6 C-0.5775 6.70125 -1.155 7.4025 -1.75 8.125 C-4.45999529 11.58777176 -6.72514179 15.24275468 -9 19 C-10.23979002 15.28062994 -9.6803342 14.45260158 -8 11 C-6.85930119 9.21913996 -5.66990248 7.46867402 -4.4375 5.75 C-3.81746094 4.87859375 -3.19742188 4.0071875 -2.55859375 3.109375 C-1 1 -1 1 0 0 Z " fill="#222121" transform="translate(633,96)"/>
<path d="M0 0 C4.71997603 2.03405055 6.56078562 5.19397787 9.3125 9.375 C9.77978516 10.04789062 10.24707031 10.72078125 10.72851562 11.4140625 C11.16486328 12.06890625 11.60121094 12.72375 12.05078125 13.3984375 C12.64886597 14.29054932 12.64886597 14.29054932 13.2590332 15.20068359 C14.20496438 17.49772239 13.80595975 18.69951811 13 21 C10.8296677 17.68988803 8.66435262 14.37652434 6.5 11.0625 C5.87996094 10.11697266 5.25992188 9.17144531 4.62109375 8.19726562 C4.03457031 7.29814453 3.44804688 6.39902344 2.84375 5.47265625 C2.02680664 4.22367554 2.02680664 4.22367554 1.19335938 2.94946289 C0 1 0 1 0 0 Z " fill="#4A403D" transform="translate(853,358)"/>
<path d="M0 0 C0.66 0 1.32 0 2 0 C1.43398995 3.89304473 0.3202 6.49542487 -1.875 9.75 C-2.38804687 10.52859375 -2.90109375 11.3071875 -3.4296875 12.109375 C-5 14 -5 14 -8 15 C-6.62992438 11.34426939 -4.98982135 8.04532353 -3 4.6875 C-2.484375 3.80449219 -1.96875 2.92148437 -1.4375 2.01171875 C-0.7259375 1.01591797 -0.7259375 1.01591797 0 0 Z " fill="#151211" transform="translate(196,790)"/>
<path d="M0 0 C0.66 0.66 1.32 1.32 2 2 C-2.455 8.93 -2.455 8.93 -7 16 C-7.66 15.67 -8.32 15.34 -9 15 C-7.61219205 11.10993227 -5.7847773 8.03441292 -3.375 4.6875 C-2.74335938 3.80449219 -2.11171875 2.92148437 -1.4609375 2.01171875 C-0.97882813 1.34785156 -0.49671875 0.68398438 0 0 Z " fill="#060705" transform="translate(443,398)"/>
<path d="M0 0 C3.520309 1.61743927 5.31119269 3.07120925 6.875 6.5625 C8 10 8 10 7 12 C4.35247996 9.42215154 2.05567935 7.08351902 0 4 C0 2.68 0 1.36 0 0 Z " fill="#4D4546" transform="translate(727,237)"/>
<path d="M0 0 C0.99 0 1.98 0 3 0 C0.73612498 6.41431255 -2.47155672 11.00723541 -8 15 C-6.6310888 11.36485304 -5.0167935 8.04411097 -3.0625 4.6875 C-2.30646484 3.36298828 -2.30646484 3.36298828 -1.53515625 2.01171875 C-1.02855469 1.34785156 -0.52195312 0.68398437 0 0 Z " fill="#1B1817" transform="translate(547,231)"/>
<path d="M0 0 C0.703125 1.64453125 0.703125 1.64453125 1 4 C-0.328125 6.76171875 -0.328125 6.76171875 -2.25 9.6875 C-2.87390625 10.66074219 -3.4978125 11.63398437 -4.140625 12.63671875 C-6 15 -6 15 -9 16 C-7.56691865 12.04093183 -5.66858051 8.71281819 -3.375 5.1875 C-2.74335938 4.21167969 -2.11171875 3.23585938 -1.4609375 2.23046875 C-0.73777344 1.12638672 -0.73777344 1.12638672 0 0 Z " fill="#070706" transform="translate(281,655)"/>
<path d="M0 0 C3.65316671 1.24976756 4.78065836 1.67098753 7 5 C7.125 7.6875 7.125 7.6875 7 10 C3.73539027 8.19587357 2.11070205 7.16605307 0 4 C0 2.68 0 1.36 0 0 Z " fill="#463F3F" transform="translate(642,112)"/>
<path d="M0 0 C0.66 0.66 1.32 1.32 2 2 C0.90630138 3.81883578 -0.20031392 5.62990978 -1.3125 7.4375 C-1.92738281 8.44683594 -2.54226563 9.45617187 -3.17578125 10.49609375 C-5 13 -5 13 -8 14 C-6.6744419 10.37723685 -5.05653045 7.36494652 -2.875 4.1875 C-2.33617187 3.39730469 -1.79734375 2.60710937 -1.2421875 1.79296875 C-0.83226562 1.20128906 -0.42234375 0.60960937 0 0 Z " fill="#060605" transform="translate(430,418)"/>
<path d="M0 0 C3.5667949 1.44536787 5.18530899 3.19740946 7.3125 6.375 C7.84488281 7.14585937 8.37726562 7.91671875 8.92578125 8.7109375 C10 11 10 11 9.66796875 13.2890625 C9.44753906 13.85367187 9.22710938 14.41828125 9 15 C7.68325862 13.06537998 6.37174202 11.12720303 5.0625 9.1875 C4.33160156 8.10855469 3.60070312 7.02960938 2.84765625 5.91796875 C1 3 1 3 0 0 Z " fill="#493E3A" transform="translate(935,480)"/>
<path d="M0 0 C0.33 0.66 0.66 1.32 1 2 C-4.96583144 11.59453303 -4.96583144 11.59453303 -10 15 C-8.8822061 11.13071343 -8.01535426 8.66742876 -5 6 C-3.65705519 4.34106818 -2.32255312 2.67523395 -1 1 C-0.67 0.67 -0.34 0.34 0 0 Z " fill="#2A2826" transform="translate(597,155)"/>
<path d="M0 0 C0.66 0.66 1.32 1.32 2 2 C1.23997083 3.31878578 0.46656347 4.6298684 -0.3125 5.9375 C-0.74175781 6.66839844 -1.17101562 7.39929688 -1.61328125 8.15234375 C-3 10 -3 10 -6 11 C-4.54955729 6.89041233 -2.48889248 3.56741255 0 0 Z " fill="#090605" transform="translate(300,625)"/>
<path d="M0 0 C0.33 0.66 0.66 1.32 1 2 C-0.21484375 4.3828125 -0.21484375 4.3828125 -1.9375 7.125 C-2.50339844 8.03507813 -3.06929687 8.94515625 -3.65234375 9.8828125 C-4.09707031 10.58148438 -4.54179688 11.28015625 -5 12 C-5.66 11.67 -6.32 11.34 -7 11 C-5.47522022 5.9900093 -3.62414716 3.62414716 0 0 Z " fill="#1D1B18" transform="translate(568,201)"/>
<path d="M0 0 C0.66 0.66 1.32 1.32 2 2 C1.23997083 3.31878578 0.46656347 4.6298684 -0.3125 5.9375 C-0.74175781 6.66839844 -1.17101562 7.39929688 -1.61328125 8.15234375 C-3 10 -3 10 -6 11 C-4.54955729 6.89041233 -2.48889248 3.56741255 0 0 Z " fill="#070604" transform="translate(320,593)"/>
<path d="M0 0 C3.93544623 1.31181541 5.74938163 3.95958727 8.14453125 7.1484375 C9.22877115 9.49514852 8.85573613 10.61653863 8 13 C6.66388095 11.0226631 5.33100742 9.04327287 4 7.0625 C3.6184375 6.49853516 3.236875 5.93457031 2.84375 5.35351562 C0 1.11328125 0 1.11328125 0 0 Z " fill="#473D3A" transform="translate(811,296)"/>
<path d="M0 0 C0.66 0.66 1.32 1.32 2 2 C0.35 4.64 -1.3 7.28 -3 10 C-3.66 9.67 -4.32 9.34 -5 9 C-3.7508258 5.54074837 -2.32472205 2.85306797 0 0 Z " fill="#080806" transform="translate(257,694)"/>
<path d="M0 0 C0.66 0.33 1.32 0.66 2 1 C0.68775452 4.93673644 -0.91910327 7.22719294 -4 10 C-4 5.75354935 -2.18249194 3.61475228 0 0 Z " fill="#080706" transform="translate(456,376)"/>
<path d="M0 0 C1.65 1.65 3.3 3.3 5 5 C4.67 5.66 4.34 6.32 4 7 C3.34 6.67 2.68 6.34 2 6 C1.67 6.66 1.34 7.32 1 8 C0.01 6.68 -0.98 5.36 -2 4 C-1.67 3.34 -1.34 2.68 -1 2 C-0.67 2 -0.34 2 0 2 C0 1.34 0 0.68 0 0 Z " fill="#3D3837" transform="translate(665,143)"/>
<path d="M0 0 C0.66 0 1.32 0 2 0 C0.68775452 3.93673644 -0.91910327 6.22719294 -4 9 C-4 4.9666466 -2.39120082 3.16482462 0 0 Z " fill="#060606" transform="translate(466,361)"/>
<path d="M0 0 C1.32 1.32 2.64 2.64 4 4 C3.67 4.66 3.34 5.32 3 6 C3 6.66 3 7.32 3 8 C2.67 8.66 2.34 9.32 2 10 C-1.125 3.375 -1.125 3.375 0 0 Z " fill="#343030" transform="translate(634,97)"/>
<path d="M0 0 C2.475 0.99 2.475 0.99 5 2 C4.67 3.32 4.34 4.64 4 6 C3.01 5.67 2.02 5.34 1 5 C0.67 3.35 0.34 1.7 0 0 Z " fill="#484242" transform="translate(706,207)"/>
<path d="M0 0 C3 1 3 1 4.75 3.375 C6 6 6 6 5 9 C1.7457985 6.16569547 0.4793247 4.31392226 0 0 Z " fill="#4A4545" transform="translate(671,155)"/>
<path d="M0 0 C0.66 0.66 1.32 1.32 2 2 C0.02 4.97 0.02 4.97 -2 8 C-2.66 7.34 -3.32 6.68 -4 6 C-2.68 4.02 -1.36 2.04 0 0 Z " fill="#090704" transform="translate(307,614)"/>
<path d="M0 0 C2.4375 1.125 2.4375 1.125 5 3 C5.8125 6.1875 5.8125 6.1875 6 9 C2.91910327 6.22719294 1.31224548 3.93673644 0 0 Z " fill="#403939" transform="translate(861,436)"/>
<path d="M0 0 C0.66 0 1.32 0 2 0 C1.50168276 3.68754757 0.89932357 5.60490662 -2 8 C-2.20086443 4.28400809 -2.1519437 3.22791555 0 0 Z " fill="#0B0A08" transform="translate(196,790)"/>
<path d="M0 0 C1.65 1.65 3.3 3.3 5 5 C4.67 5.99 4.34 6.98 4 8 C1.10067643 5.60490662 0.49831724 3.68754757 0 0 Z " fill="#4E4848" transform="translate(834,394)"/>
<path d="M0 0 C0.66 0.99 1.32 1.98 2 3 C0.35 4.65 -1.3 6.3 -3 8 C-3 4.42424104 -1.91159393 2.94704065 0 0 Z " fill="#080704" transform="translate(448,389)"/>
<path d="M0 0 C3 0 3 0 4.6875 1.5 C5.120625 1.995 5.55375 2.49 6 3 C5.67 3.66 5.34 4.32 5 5 C4.01 5 3.02 5 2 5 C1.34 3.35 0.68 1.7 0 0 Z " fill="#463F3F" transform="translate(780,317)"/>
<path d="M0 0 C1.32 1.32 2.64 2.64 4 4 C3 6 3 6 1 7 C-0.0625 4.625 -0.0625 4.625 -1 2 C-0.67 1.34 -0.34 0.68 0 0 Z " fill="#484041" transform="translate(775,306)"/>
</svg>
